HIERARCHY
ROOT joint_Root
{
	OFFSET 0.0 0.0 0.0
	CHANNELS 6 Xposition Yposition Zposition Zrotation Xrotation Yrotation 
	JOINT Hips
	{
		OFFSET -17.1583 93.1646 452.98
		CHANNELS 6 Xposition Yposition Zposition Zrotation Xrotation Yrotation 
		JOINT Spine
		{
			OFFSET 15.7357 0.0 0.0
			CHANNELS 6 Xposition Yposition Zposition Zrotation Xrotation Yrotation 
			JOINT Chest
			{
				OFFSET 8.98455 -0.406207 0.0
				CHANNELS 6 Xposition Yposition Zposition Zrotation Xrotation Yrotation 
				JOINT Neck
				{
					OFFSET 16.3773 0.0 0.0
					CHANNELS 6 Xposition Yposition Zposition Zrotation Xrotation Yrotation 
					JOINT Head
					{
						OFFSET 6.45672 0.0 0.0
						CHANNELS 6 Xposition Yposition Zposition Zrotation Xrotation Yrotation 
						End Site
						{
							OFFSET 0.0 0.0 0.0
						}
					}
				}
				JOINT Shoulder_L
				{
					OFFSET 12.9942 -0.242716 4.98039
					CHANNELS 6 Xposition Yposition Zposition Zrotation Xrotation Yrotation 
					JOINT UpperArm_L
					{
						OFFSET 5.34809 0.0 0.0
						CHANNELS 6 Xposition Yposition Zposition Zrotation Xrotation Yrotation 
						JOINT LowerArm_L
						{
							OFFSET 24.3286 1.87007e-05 0.0
							CHANNELS 6 Xposition Yposition Zposition Zrotation Xrotation Yrotation 
							JOINT Hand_L
							{
								OFFSET 22.2916 0.0 0.0
								CHANNELS 6 Xposition Yposition Zposition Zrotation Xrotation Yrotation 
								End Site
								{
									OFFSET 0.0 0.0 0.0
								}
							}
						}
					}
				}
				JOINT Shoulder_R
				{
					OFFSET 12.9945 -0.242716 -4.98039
					CHANNELS 6 Xposition Yposition Zposition Zrotation Xrotation Yrotation 
					JOINT UpperArm_R
					{
						OFFSET -5.34813 0.0 0.0
						CHANNELS 6 Xposition Yposition Zposition Zrotation Xrotation Yrotation 
						JOINT LowerArm_R
						{
							OFFSET -24.3289 0.000322201 0.0
							CHANNELS 6 Xposition Yposition Zposition Zrotation Xrotation Yrotation 
							JOINT Hand_R
							{
								OFFSET -22.2915 -0.000108084 0.0
								CHANNELS 6 Xposition Yposition Zposition Zrotation Xrotation Yrotation 
								End Site
								{
									OFFSET 0.0 0.0 0.0
								}
							}
						}
					}
				}
			}
		}
		JOINT UpperLeg_L
		{
			OFFSET -2.19248 -6.46944 0.0
			CHANNELS 6 Xposition Yposition Zposition Zrotation Xrotation Yrotation 
			JOINT LowerLeg_L
			{
				OFFSET 39.0811 0.0 -1.23785e-05
				CHANNELS 6 Xposition Yposition Zposition Zrotation Xrotation Yrotation 
				JOINT Foot_L
				{
					OFFSET 40.9854 0.0 -1.26872e-05
					CHANNELS 6 Xposition Yposition Zposition Zrotation Xrotation Yrotation 
					JOINT Toes_L
					{
						OFFSET 11.7543 0.0 0.0
						CHANNELS 6 Xposition Yposition Zposition Zrotation Xrotation Yrotation 
						End Site
						{
							OFFSET 0.0 0.0 0.0
						}
					}
				}
			}
		}
		JOINT UpperLeg_R
		{
			OFFSET -2.19251 6.46944 0.0
			CHANNELS 6 Xposition Yposition Zposition Zrotation Xrotation Yrotation 
			JOINT LowerLeg_R
			{
				OFFSET -39.0811 -0.00228153 -0.0401928
				CHANNELS 6 Xposition Yposition Zposition Zrotation Xrotation Yrotation 
				JOINT Foot_R
				{
					OFFSET -40.9854 0.0 0.0
					CHANNELS 6 Xposition Yposition Zposition Zrotation Xrotation Yrotation 
					JOINT Toes_R
					{
						OFFSET -11.7543 0.0 0.0
						CHANNELS 6 Xposition Yposition Zposition Zrotation Xrotation Yrotation 
						End Site
						{
							OFFSET 0.0 0.0 0.0
						}
					}
				}
			}
		}
	}
}
MOTION
Frames:	9
Frame Time:	0.0333333
0.000000 0.000000 0.000000 0.000000 0.000000 -0.000000 -2.186190 93.462200 -2.650800 88.134200 1.885410 1.485760 15.735700 0.000005 -0.000001 86.970400 85.397800 -85.007900 8.984550 -0.406207 -0.000000 1.438830 -0.594516 3.929010 16.377300 -0.000001 -0.000001 -4.202060 0.555583 -1.522930 6.456720 -0.000001 -0.000000 -6.973840 -0.182518 -2.167460 12.994200 -0.242716 4.980390 -91.991500 6.422470 -72.731000 5.348090 -0.000007 -0.000001 -66.515300 5.850400 -12.721500 24.328600 0.000019 0.000005 2.633070 22.438900 -6.869400 22.291600 -0.000001 0.000005 -14.693700 5.224170 2.109490 12.994500 -0.242716 -4.980390 89.187400 2.916810 -74.425200 -5.348130 -0.000001 -0.000004 -69.014700 13.476700 -9.734530 -24.328900 0.000322 -0.000009 -0.866241 -11.925000 -4.184630 -22.291500 -0.000108 -0.000004 -11.212000 5.171730 3.426510 -2.192480 -6.469440 -0.000000 -172.436000 -3.710610 -1.335000 39.081100 -0.000007 -0.000012 0.007762 -0.033903 12.895500 40.985400 -0.000006 -0.000013 -2.688030 13.117300 -65.998700 11.754300 -0.000000 0.000003 -0.000561 0.176581 -9.414240 -2.192510 6.469440 -0.000001 178.683000 8.565210 179.651000 -39.081100 -0.002282 -0.040193 0.022394 -0.087420 12.299200 -40.985400 0.000008 0.000006 -5.054090 4.870720 -66.283700 -11.754300 -0.000006 -0.000006 -0.009481 0.267382 -5.711410
0.000000 0.000000 0.000000 0.000000 0.000000 -0.000000 -2.254830 93.602600 -2.355500 88.065900 2.544910 -0.580068 15.735700 0.000005 -0.000001 80.883000 87.047300 -78.871800 8.984550 -0.406207 -0.000000 -1.912780 -1.105270 4.003360 16.377300 -0.000001 -0.000001 -3.319280 0.787986 -1.649530 6.456720 -0.000001 -0.000000 -4.509870 0.188909 -2.679420 12.994200 -0.242716 4.980390 -91.792200 5.402940 -71.617100 5.348090 -0.000007 -0.000001 -63.999800 -7.432450 -13.251300 24.328600 0.000019 0.000005 1.079130 23.516800 -2.703290 22.291600 -0.000001 0.000005 -20.144400 5.187200 3.048330 12.994500 -0.242716 -4.980390 89.377500 2.023040 -72.890400 -5.348130 -0.000001 -0.000004 -67.275700 -0.161584 -8.598920 -24.328900 0.000322 -0.000009 -0.001364 -13.705700 -0.000077 -22.291500 -0.000108 -0.000004 -13.863900 5.063390 5.941520 -2.192480 -6.469440 -0.000000 -172.296000 -3.698160 -2.542800 39.081100 -0.000007 -0.000012 -0.003502 0.017567 11.272100 40.985400 -0.000006 -0.000013 -3.884080 13.654700 -65.284700 11.754300 -0.000000 0.000003 -0.000535 0.176188 -9.430210 -2.192510 6.469440 -0.000001 178.985000 9.562370 178.945000 -39.081100 -0.002282 -0.040193 0.012869 -0.053925 10.022300 -40.985400 0.000008 0.000006 -5.763960 5.221910 -65.239100 -11.754300 -0.000006 -0.000006 -0.009430 0.266996 -5.727210
0.000000 0.000000 0.000000 0.000000 0.000000 -0.000000 -2.334560 93.745100 -2.027970 88.041400 3.203300 -3.055910 15.735700 0.000005 -0.000001 61.629400 88.582800 -59.627100 8.984550 -0.406207 -0.000000 -5.242540 -1.572390 3.936480 16.377300 -0.000001 -0.000001 -3.368620 1.033500 -1.861320 6.456720 -0.000001 -0.000000 -1.590980 0.642926 -2.869470 12.994200 -0.242716 4.980390 -91.592300 4.505820 -70.513400 5.348090 -0.000007 -0.000001 -58.519300 -16.327000 -14.285300 24.328600 0.000019 0.000005 0.574554 26.665700 -1.279960 22.291600 -0.000001 0.000005 -25.226300 5.160730 3.684950 12.994500 -0.242716 -4.980390 89.702100 0.881469 -71.322800 -5.348130 -0.000001 -0.000004 -63.628000 -15.129500 -7.974660 -24.328900 0.000322 -0.000009 -0.001027 -11.444700 -0.000066 -22.291500 -0.000108 -0.000004 -13.556300 4.939460 8.571890 -2.192480 -6.469440 -0.000000 -172.073000 -3.803770 -4.035310 39.081100 -0.000007 -0.000012 -0.016879 0.103334 9.276590 40.985400 -0.000006 -0.000013 -6.391320 14.322600 -63.651700 11.754300 -0.000000 0.000003 -0.000667 0.178183 -9.349150 -2.192510 6.469440 -0.000001 179.345000 10.136700 178.116000 -39.081100 -0.002282 -0.040193 0.007950 -0.036699 7.154460 -40.985400 0.000008 0.000006 -7.123920 5.186570 -63.820200 -11.754300 -0.000006 -0.000006 -0.009472 0.267318 -5.714030
0.000000 0.000000 0.000000 0.000000 0.000000 -0.000000 -2.428940 93.842300 -1.589500 88.101700 3.809690 -5.127390 15.735700 0.000005 -0.000001 -1.327720 89.137300 3.245060 8.984550 -0.406207 -0.000000 -7.772540 -1.980220 3.708340 16.377300 -0.000001 -0.000001 -4.415950 1.333180 -2.021270 6.456720 -0.000001 -0.000000 0.943257 1.110580 -3.010430 12.994200 -0.242716 4.980390 -91.347300 3.577670 -69.347600 5.348090 -0.000007 -0.000001 -52.409500 -25.070300 -16.087100 24.328600 0.000019 0.000005 0.732037 28.806000 -1.518880 22.291600 -0.000001 0.000005 -26.496200 5.169140 3.482250 12.994500 -0.242716 -4.980390 89.958000 0.115712 -70.020900 -5.348130 -0.000001 -0.000004 -57.992000 -27.385200 -7.203070 -24.328900 0.000322 -0.000009 -0.001037 -10.663900 -0.000062 -22.291500 -0.000108 -0.000004 -11.731400 4.844380 10.470500 -2.192480 -6.469440 -0.000000 -171.923000 -4.084980 -4.744580 39.081100 -0.000007 -0.000012 -0.015802 0.133474 6.751440 40.985400 -0.000006 -0.000013 -8.650920 15.053300 -61.875400 11.754300 -0.000000 0.000003 -0.000688 0.178499 -9.336320 -2.192510 6.469440 -0.000001 179.593000 10.819700 178.119000 -39.081100 -0.002282 -0.040193 0.007714 -0.068545 3.643030 -40.985400 0.000008 0.000006 -8.366700 5.246650 -62.197200 -11.754300 -0.000006 -0.000006 -0.009428 0.266983 -5.727730
0.000000 0.000000 0.000000 0.000000 0.000000 -0.000000 -2.513560 93.846700 -1.050970 88.110300 4.143350 -6.225870 15.735700 0.000005 -0.000001 -37.359100 88.681000 39.251200 8.984550 -0.406207 -0.000000 -9.329350 -2.370810 3.602090 16.377300 -0.000001 -0.000001 -5.686220 1.711560 -2.200880 6.456720 -0.000001 -0.000000 2.486790 1.656590 -3.456260 12.994200 -0.242716 4.980390 -90.954700 2.410870 -68.387500 5.348090 -0.000007 -0.000001 -46.648600 -34.291600 -18.106600 24.328600 0.000019 0.000005 0.534740 23.950200 -1.316830 22.291600 -0.000001 0.000005 -22.374100 5.146950 4.005230 12.994500 -0.242716 -4.980390 90.424900 -1.095810 -68.807700 -5.348130 -0.000001 -0.000004 -52.356000 -37.008800 -7.795100 -24.328900 0.000322 -0.000009 -0.001216 -14.697700 -0.000082 -22.291500 -0.000108 -0.000004 -8.517870 4.884280 9.694150 -2.192480 -6.469440 -0.000000 -171.791000 -4.079950 -4.874830 39.081100 -0.000007 -0.000012 -0.013037 0.138888 5.362060 40.985400 -0.000006 -0.000013 -9.626380 15.265200 -61.193400 11.754300 -0.000000 0.000003 -0.000624 0.177539 -9.375340 -2.192510 6.469440 -0.000001 179.831000 11.382000 177.781000 -39.081100 -0.002282 -0.040193 0.007025 -0.073747 2.852370 -40.985400 0.000008 0.000006 -8.516280 5.472420 -62.095700 -11.754300 -0.000006 -0.000006 -0.009674 0.268855 -5.651200
0.000000 0.000000 0.000000 0.000000 0.000000 -0.000000 -2.565110 93.840000 -0.559089 88.067500 4.151000 -6.859470 15.735700 0.000005 -0.000001 -46.799400 88.284800 48.647200 8.984550 -0.406207 -0.000000 -10.227700 -2.627170 3.473510 16.377300 -0.000001 -0.000001 -7.135770 1.964670 -2.121600 6.456720 -0.000001 -0.000000 3.057310 2.397170 -3.804490 12.994200 -0.242716 4.980390 -90.399600 0.970415 -67.615600 5.348090 -0.000007 -0.000001 -40.825000 -41.799700 -20.076800 24.328600 0.000019 0.000005 0.347538 14.910100 -1.350700 22.291600 -0.000001 0.000005 -15.145700 5.058250 6.026950 12.994500 -0.242716 -4.980390 91.049600 -2.590230 -67.933700 -5.348130 -0.000001 -0.000004 -47.690700 -45.380200 -9.445180 -24.328900 0.000322 -0.000009 -0.001223 -21.824500 -0.000122 -22.291500 -0.000108 -0.000004 -2.616450 4.949340 8.391130 -2.192480 -6.469440 -0.000000 -171.660000 -4.172990 -4.527790 39.081100 -0.000007 -0.000012 -0.009185 0.129256 4.064320 40.985400 -0.000006 -0.000013 -10.201000 15.296900 -60.683900 11.754300 -0.000000 0.000003 -0.000451 0.174897 -9.482650 -2.192510 6.469440 -0.000001 179.994000 11.558700 177.643000 -39.081100 -0.002282 -0.040193 0.006287 -0.067852 2.477140 -40.985400 0.000008 0.000006 -8.514470 5.664080 -62.075300 -11.754300 -0.000006 -0.000006 -0.009594 0.268249 -5.675980
0.000000 0.000000 0.000000 0.000000 0.000000 -0.000000 -2.567700 93.826400 -0.105679 87.995400 3.985970 -7.161770 15.735700 0.000005 -0.000001 -51.158200 88.120400 52.951800 8.984550 -0.406207 -0.000000 -10.656700 -2.633740 3.355140 16.377300 -0.000001 -0.000001 -8.464420 2.055140 -2.060710 6.456720 -0.000001 -0.000000 2.599490 2.828780 -4.066490 12.994200 -0.242716 4.980390 -89.664600 -0.794226 -67.108200 5.348090 -0.000007 -0.000001 -36.019200 -48.625600 -22.569600 24.328600 0.000019 0.000005 0.211264 7.777850 -1.560580 22.291600 -0.000001 0.000005 -5.067710 4.905740 9.211350 12.994500 -0.242716 -4.980390 91.871100 -4.484990 -67.327400 -5.348130 -0.000001 -0.000004 -44.005500 -53.173500 -11.897700 -24.328900 0.000322 -0.000009 -0.001256 -26.970500 -0.000153 -22.291500 -0.000108 -0.000004 5.610000 4.998440 7.350660 -2.192480 -6.469440 -0.000000 -171.540000 -4.096870 -4.076060 39.081100 -0.000007 -0.000012 -0.006746 0.118759 3.250560 40.985400 -0.000006 -0.000013 -10.616100 14.973700 -60.551200 11.754300 -0.000000 0.000003 -0.000617 0.177436 -9.379520 -2.192510 6.469440 -0.000001 -179.907000 11.743000 177.834000 -39.081100 -0.002282 -0.040193 0.005565 -0.061662 2.055480 -40.985400 0.000008 0.000006 -8.470930 5.964340 -62.012800 -11.754300 -0.000006 -0.000006 -0.009751 0.269438 -5.627330
0.000000 0.000000 0.000000 0.000000 0.000000 -0.000000 -2.564020 93.823100 0.253951 87.921800 3.668380 -7.430940 15.735700 0.000005 -0.000001 -54.707900 88.094000 56.421000 8.984550 -0.406207 -0.000000 -10.843900 -2.468670 3.205290 16.377300 -0.000001 -0.000001 -9.713030 1.986630 -1.858070 6.456720 -0.000001 -0.000000 1.655940 3.117300 -4.190240 12.994200 -0.242716 4.980390 -88.913300 -2.541980 -66.844900 5.348090 -0.000007 -0.000001 -32.352600 -55.239600 -26.162000 24.328600 0.000019 0.000005 0.111978 4.314080 -1.487770 22.291600 -0.000001 0.000005 7.494770 4.658800 13.822400 12.994500 -0.242716 -4.980390 92.769400 -6.498480 -66.858000 -5.348130 -0.000001 -0.000004 -40.948000 -58.451900 -15.304400 -24.328900 0.000322 -0.000009 -0.001154 -33.723000 -0.000198 -22.291500 -0.000108 -0.000004 17.194300 5.005850 7.209200 -2.192480 -6.469440 -0.000000 -171.431000 -3.976390 -3.049920 39.081100 -0.000007 -0.000012 -0.001149 0.051349 1.280590 40.985400 -0.000006 -0.000013 -11.237800 14.446900 -59.630700 11.754300 -0.000000 0.000003 -0.000658 0.178057 -9.354290 -2.192510 6.469440 -0.000001 -179.851000 11.523600 177.820000 -39.081100 -0.002282 -0.040193 0.005426 -0.061804 1.921940 -40.985400 0.000008 0.000006 -8.571430 6.070190 -61.892200 -11.754300 -0.000006 -0.000006 -0.009729 0.269265 -5.634410
0.000000 0.000000 0.000000 0.000000 0.000000 -0.000000 -2.496640 93.839600 0.567496 87.894500 3.063000 -7.472550 15.735700 0.000005 -0.000001 -57.661400 88.153800 59.293400 8.984550 -0.406207 -0.000000 -10.856600 -2.229690 3.064680 16.377300 -0.000001 -0.000001 -10.491300 2.032840 -1.694680 6.456720 -0.000001 -0.000000 0.657782 3.306710 -4.164560 12.994200 -0.242716 4.980390 -88.141000 -4.236220 -66.280900 5.348090 -0.000007 -0.000001 -31.003500 -61.157400 -31.786800 24.328600 0.000019 0.000005 0.056569 2.216460 -1.460300 22.291600 -0.000001 0.000005 21.794100 4.345820 19.042300 12.994500 -0.242716 -4.980390 93.753800 -8.465200 -65.978200 -5.348130 -0.000001 -0.000004 -41.228200 -62.923800 -22.620100 -24.328900 0.000322 -0.000009 -0.001141 -39.299700 -0.000242 -22.291500 -0.000108 -0.000004 29.686900 5.043920 6.377540 -2.192480 -6.469440 -0.000000 -171.478000 -4.083620 -2.095470 39.081100 -0.000007 -0.000012 -0.000001 -0.001891 0.000000 40.985400 -0.000006 -0.000013 -11.283100 13.925200 -59.193000 11.754300 -0.000000 0.000003 -0.000798 0.180121 -9.270400 -2.192510 6.469440 -0.000001 -179.953000 11.377000 177.938000 -39.081100 -0.002282 -0.040193 0.005461 -0.063537 1.901170 -40.985400 0.000008 0.000006 -8.699760 6.484870 -61.772900 -11.754300 -0.000006 -0.000006 -0.009982 0.271167 -5.556630
